<?xml version="1.0" standalone="no"?>
<!DOCTYPE svg PUBLIC "-//W3C//DTD SVG 20010904//EN"
 "http://www.w3.org/TR/2001/REC-SVG-20010904/DTD/svg10.dtd">
<svg version="1.0" xmlns="http://www.w3.org/2000/svg"
 width="7500.000000pt" height="5000.000000pt" viewBox="0 0 7500.000000 5000.000000"
 preserveAspectRatio="xMidYMid meet">

<g transform="translate(0.000000,5000.000000) scale(0.100000,-0.100000)"
fill="#000000" stroke="none">
<path d="M34105 38533 c-245 -32 -471 -116 -675 -252 -103 -68 -281 -238 -361
-343 -146 -195 -240 -412 -284 -658 -11 -67 -60 -1644 -225 -7260 -115 -3946
-209 -7178 -207 -7182 1 -3 88 41 194 98 l191 105 6 72 c3 40 33 1022 66 2182
67 2341 301 10293 330 11225 10 327 24 631 30 675 39 278 203 553 434 727 93
71 268 158 374 187 179 49 -160 56 5787 -117 3036 -89 5565 -164 5620 -167
499 -30 908 -364 1035 -845 30 -116 35 -282 21 -757 -6 -213 -14 -500 -16
-638 -3 -137 -75 -2639 -160 -5560 -86 -2920 -209 -7148 -274 -9393 -66 -2246
-121 -4085 -123 -4087 -2 -1 -2383 67 -5291 152 -2909 85 -5290 153 -5292 151
-2 -2 60 -132 138 -288 297 -594 469 -1028 552 -1394 13 -60 27 -111 30 -114
6 -7 8306 -251 8650 -254 277 -3 363 8 556 72 580 192 992 718 1035 1323 3 45
140 4690 303 10322 210 7217 296 10267 290 10330 -34 362 -175 661 -439 926
-271 273 -601 423 -978 445 -172 10 -11047 324 -11169 323 -65 -1 -131 -4
-148 -6z"/>
<path d="M38813 32726 c-95 -22 -122 -39 -234 -149 -188 -185 -281 -212 -854
-247 -368 -22 -437 -31 -510 -64 -115 -52 -162 -125 -225 -346 -69 -240 -113
-307 -245 -370 -47 -22 -90 -50 -96 -62 -18 -34 -5 -137 26 -206 30 -68 105
-146 171 -180 52 -26 154 -46 200 -39 109 18 194 -41 284 -195 30 -51 79 -118
110 -149 47 -48 65 -58 122 -74 94 -25 191 -16 322 31 364 131 443 148 630
143 l113 -4 104 -53 c124 -62 194 -77 296 -62 129 18 213 55 423 188 250 158
385 206 522 184 122 -19 174 -55 301 -211 l69 -83 99 -511 c54 -282 99 -513
99 -515 0 -2 18 12 41 31 70 61 253 115 340 101 l37 -6 125 383 c69 211 128
395 132 409 4 14 23 66 42 115 20 50 47 133 61 185 24 88 26 111 26 320 1 197
-2 239 -22 339 -49 243 -175 548 -279 676 -97 119 -233 206 -413 263 -146 46
-273 61 -615 72 -341 11 -398 16 -655 61 -211 37 -446 48 -547 25z"/>
<path d="M38145 30596 c-68 -16 -177 -68 -203 -97 -46 -48 -17 -140 49 -154
24 -5 48 1 103 26 58 28 86 34 154 37 73 4 89 1 135 -22 29 -14 74 -48 101
-76 42 -44 53 -50 88 -50 30 0 46 7 69 29 52 52 36 106 -57 190 -123 112 -283
155 -439 117z"/>
<path d="M39613 30445 c-64 -18 -162 -66 -184 -91 -43 -49 -25 -124 36 -150
34 -14 39 -13 103 15 179 79 277 65 404 -55 61 -58 87 -65 137 -39 34 17 56
65 47 101 -9 34 -95 125 -157 165 -103 65 -261 87 -386 54z"/>
<path d="M38173 30135 c-95 -41 -95 -183 0 -228 43 -21 58 -21 102 -3 69 29
99 133 54 190 -42 53 -96 67 -156 41z"/>
<path d="M39653 29920 c-108 -66 -63 -230 63 -230 62 0 109 35 124 91 10 34 8
46 -9 82 -36 73 -112 98 -178 57z"/>
<path d="M38402 28948 c-21 -21 -14 -34 48 -96 173 -171 425 -203 709 -90 105
41 161 76 161 99 0 35 -30 32 -113 -9 -128 -63 -206 -84 -334 -89 -94 -5 -122
-2 -181 16 -79 24 -170 80 -225 140 -41 44 -47 47 -65 29z"/>
<path d="M40585 27249 c6 -25 1 -30 -67 -70 -183 -107 -405 -198 -588 -241
-125 -29 -367 -36 -485 -13 -110 20 -224 63 -301 113 l-59 38 -10 75 -10 74
-54 3 c-73 4 -246 -22 -416 -63 -637 -152 -1281 -497 -1870 -999 -169 -144
-291 -264 -280 -273 151 -115 386 -269 554 -366 l94 -54 61 19 c327 103 1172
241 2228 363 216 25 443 52 503 59 61 8 475 80 920 161 735 133 818 147 900
143 113 -5 167 -29 250 -112 88 -88 197 -263 203 -326 l4 -48 72 50 c133 95
268 202 395 312 125 109 414 395 432 428 7 14 -6 25 -79 68 -126 74 -387 201
-532 258 -438 173 -855 271 -1753 410 l-118 19 6 -28z"/>
</g>
</svg>
